<?xml version="1.0" encoding="UTF-8"?>
<svg width="469px" height="313px" viewBox="0 0 469 313" version="1.1" xmlns="http://www.w3.org/2000/svg" xmlns:xlink="http://www.w3.org/1999/xlink">
    <!-- Generator: Sketch 51.1 (57501) - http://www.bohemiancoding.com/sketch -->
    <title>INSTITUTLEMONNIER_LOGO2018-SIGNATURE</title>
    <desc>Created with Sketch.</desc>
    <defs></defs>
    <g id="Page-1" stroke="none" stroke-width="1" fill="none" fill-rule="evenodd">
        <g id="INSTITUTLEMONNIER_LOGO2018-SIGNATURE" fill-rule="nonzero">
            <path d="M16.055,175.255 L15.94,175.255 C15.94,169.181667 17.6066667,164.386667 20.94,160.87 C24.8466667,156.776667 30.5333333,154.733333 38,154.74 C41.8685051,154.700632 45.7013048,155.482871 49.245,157.035 C56.245,160.131667 59.745,165.863333 59.745,174.23 L59.745,191.145 C59.745,192.89 58.055,193.765 54.69,193.765 C51.4366667,193.765 49.8083333,192.891667 49.805,191.145 L49.805,174.295 C49.805,170.615 49.235,168.045 48.1,166.565 C45.8666667,163.665 42.4966667,162.213333 37.99,162.21 C33.4833333,162.206667 30.0916667,163.625 27.815,166.465 C26.5716667,168.051667 25.9483333,170.551667 25.945,173.965 L25.945,190.795 C25.945,192.548333 24.2516667,193.425 20.865,193.425 C17.64,193.425 16.035,192.55 16.035,190.795 L16.055,175.255 Z" id="Shape" fill="#AD2D5E"></path>
            <path d="M96.55,192.14 C93.2533333,193.14 89.23,193.64 84.48,193.64 C74.29,193.64 67.445,191.205 63.945,186.335 C63.6983056,186.006704 63.5586484,185.610427 63.545,185.2 C63.545,184.045 64.3,183.085 65.82,182.335 C66.9040334,181.777909 68.1013937,181.476858 69.32,181.455 C70.3804392,181.420785 71.4110284,181.80928 72.185,182.535 C74.095,185.671667 78.1766667,187.236667 84.43,187.23 C92.6666667,187.23 96.7833333,185.533333 96.78,182.14 C96.78,181.045 96.045,180.165 94.57,179.48 C93.445,178.98 90.485,178.275 85.675,177.435 C80.115,176.465 76.5916667,175.781667 75.105,175.385 C67.805,173.425 64.1516667,170.128333 64.145,165.495 C64.145,161.105 66.9283333,157.975 72.495,156.105 C76.4838969,154.851375 80.6494759,154.25195 84.83,154.33 C92.99,154.33 98.9816667,155.913333 102.805,159.08 C103.217048,159.402101 103.44951,159.902361 103.43,160.425 C103.43,161.545 102.575,162.425 100.875,163.085 C99.7096846,163.557707 98.4673307,163.811941 97.21,163.835 C96.2246455,163.887023 95.2515293,163.597384 94.455,163.015 C92.675,161.505 89.675,160.748333 85.455,160.745 C77.645,160.745 73.7433333,162.078333 73.75,164.745 C73.75,166.11 75.08,167.155 77.75,167.89 C78.4166667,168.053333 81.0116667,168.571667 85.535,169.445 C91.325,170.571667 94.73,171.266667 95.75,171.53 C103.25,173.446667 107,176.77 107,181.5 C107,186.48 103.523333,190.033333 96.57,192.16 L96.55,192.14 Z" id="Shape" fill="#AD2D5E"></path>
            <path d="M132.23,162.455 L124.56,162.455 L124.56,190.75 C124.56,192.57 123.006667,193.481667 119.9,193.485 C116.53,193.485 114.846667,192.573333 114.85,190.75 L114.85,162.455 L111.945,162.455 C110.165,162.455 109.275,161.41 109.275,159.305 C109.275,157.035 110.165,155.898333 111.945,155.895 L114.85,155.895 L114.85,146.5 C114.85,144.676667 116.448333,143.753333 119.645,143.73 C122.921667,143.703333 124.56,144.536667 124.56,146.23 L124.56,155.895 L132.23,155.895 C134.1,155.895 135.035,156.995 135.035,159.195 C135.035,161.375 134.1,162.455 132.23,162.455 Z" id="Shape" fill="#AD2D5E"></path>
            <path d="M144.565,149.27 C143.338969,149.280174 142.136571,148.93266 141.105,148.27 C139.849905,147.530204 139.079545,146.181901 139.079545,144.725 C139.079545,143.268099 139.849905,141.919796 141.105,141.18 C142.135595,140.515193 143.338649,140.167489 144.565,140.18 C145.803633,140.169254 147.019007,140.516504 148.065,141.18 C149.341813,141.895009 150.113268,143.262413 150.065,144.725 C150.092421,146.152504 149.356876,147.486394 148.135,148.225 C147.068271,148.910935 145.823114,149.267439 144.555,149.25 L144.565,149.27 Z M144.45,193.445 C141.62,193.445 140.195,192.675 140.195,191.145 L140.195,157.21 C140.195,155.443333 141.695,154.56 144.695,154.56 C147.821667,154.56 149.383333,155.443333 149.38,157.21 L149.38,191.21 C149.175,192.71 147.53,193.445 144.44,193.445 L144.45,193.445 Z" id="Shape" fill="#AD2D5E"></path>
            <path d="M5.5,149.27 C4.27388905,149.280755 3.07132809,148.933194 2.04,148.27 C0.784905146,147.530204 0.0145454051,146.181901 0.0145454051,144.725 C0.0145454051,143.268099 0.784905146,141.919796 2.04,141.18 C3.07022447,140.51438 4.27352836,140.166605 5.5,140.18 C6.73844068,140.170671 7.95342234,140.517809 9,141.18 C10.2768129,141.895009 11.0482681,143.262413 11,144.725 C11.0263741,146.153521 10.2887949,147.487644 9.065,148.225 C8.00511855,148.915965 6.76518503,149.279424 5.5,149.27 Z M5.385,193.445 C2.55166667,193.445 1.13333333,192.678333 1.13,191.145 L1.13,157.21 C1.13,155.443333 2.63,154.56 5.63,154.56 C8.76,154.56 10.3233333,155.443333 10.32,157.21 L10.32,191.21 C10.115,192.71 8.47,193.445 5.38,193.445 L5.385,193.445 Z" id="Shape" fill="#AD2D5E"></path>
            <path d="M176.655,162.455 L169,162.455 L169,190.75 C169,192.57 167.445,193.481667 164.335,193.485 C160.97,193.485 159.28,192.57 159.28,190.75 L159.28,162.455 L156.385,162.455 C154.605,162.455 153.715,161.41 153.715,159.305 C153.715,157.035 154.605,155.898333 156.385,155.895 L159.28,155.895 L159.28,146.5 C159.28,144.676667 160.881667,143.753333 164.085,143.73 C167.361667,143.703333 169,144.536667 169,146.23 L169,155.895 L176.67,155.895 C178.54,155.895 179.473333,156.995 179.47,159.195 C179.47,161.375 178.54,162.455 176.67,162.455 L176.655,162.455 Z" id="Shape" fill="#AD2D5E"></path>
            <path d="M216.635,191.455 C213.093459,193.0155 209.259914,193.803004 205.39,193.765 C199.056667,193.765 193.99,192.286667 190.19,189.33 C185.61,185.776667 183.321667,180.333333 183.325,173 L183.435,173.04 L183.435,157.675 C183.435,155.93 185.04,155.045 188.26,155.045 C191.65,155.045 193.345,155.93 193.345,157.675 L193.345,174.5 C193.345,177.956667 193.97,180.456667 195.22,182 C197.49,184.82 200.88,186.228333 205.39,186.225 C209.9,186.221667 213.27,184.788333 215.5,181.925 C216.626667,180.485 217.191667,177.906667 217.195,174.19 L217.195,157.355 C217.195,155.595 218.82,154.735 222.08,154.735 C225.45,154.735 227.14,155.595 227.14,157.355 L227.14,174.255 C227.14,182.611667 223.64,188.345 216.64,191.455 L216.635,191.455 Z" id="Shape" fill="#AD2D5E"></path>
            <path d="M254.965,162.455 L247.295,162.455 L247.295,190.75 C247.295,192.57 245.74,193.481667 242.63,193.485 C239.263333,193.485 237.581667,192.573333 237.585,190.75 L237.585,162.455 L234.68,162.455 C232.895,162.455 232.01,161.41 232.01,159.305 C232.01,157.035 232.895,155.895 234.68,155.895 L237.585,155.895 L237.585,146.5 C237.585,144.676667 239.183333,143.753333 242.38,143.73 C245.65,143.705 247.295,144.535 247.295,146.23 L247.295,155.895 L254.965,155.895 C256.83,155.895 257.77,156.995 257.77,159.195 C257.77,161.395 256.83,162.455 254.965,162.455 Z" id="Shape" fill="#AD2D5E"></path>
            <path d="M62.085,252.965 L34.945,252.965 L34.945,204.115 C34.945,202.925 35.67,202.07 37.13,201.525 C38.2360658,201.104997 39.4120502,200.899667 40.595,200.92 C43.9083333,200.92 45.565,201.985 45.565,204.115 L45.565,245.615 L62.065,245.615 C64.715,245.615 66.065,246.92 66.065,249.515 C66.065,251.8 64.74,252.955 62.065,252.955 L62.085,252.965 Z" id="Shape" fill="#AD2D5E"></path>
            <path d="M116.415,234.205 C116.370501,234.536358 116.353777,234.870856 116.365,235.205 L78.64,236.8 C79.0427234,240.387906 81.2037716,243.54045 84.405,245.21 C86.985,246.65 90.045,247.37 93.61,247.37 C99.8933333,247.37 104.088333,245.321667 106.195,241.225 C107.14,240.05 108.835,239.455 111.275,239.455 C114.71,239.455 116.415,240.3 116.415,242.005 C116.408815,242.26007 116.352761,242.511464 116.25,242.745 C114.64,246.875 111.315,249.875 106.275,251.745 C102.608333,253.115 98.3766667,253.796667 93.58,253.79 C87.0466667,253.79 81.5833333,252.575 77.19,250.145 C71.19,246.838333 68.19,241.608333 68.19,234.455 C68.19,228.575 70.2516667,223.841667 74.375,220.255 C78.805,216.405 85.035,214.48 93.065,214.48 C100.141667,214.48 105.935,216.171667 110.445,219.555 C112.758333,221.245 114.311667,223.181667 115.105,225.365 C115.695,226.905 116.158333,229.608333 116.495,233.475 C116.510839,233.726403 116.482062,233.978626 116.41,234.22 L116.415,234.205 Z M103.805,224.315 C101.098333,222.025 97.5583333,220.88 93.185,220.88 C90.2687767,220.831798 87.3812215,221.461686 84.75,222.72 C81.49,224.336667 79.5766667,226.738333 79.01,229.925 L106.305,228.785 C106.013148,227.050909 105.129756,225.471404 103.805,224.315 Z" id="Shape" fill="#AD2D5E"></path>
            <path d="M189.375,253.955 C188.254454,253.972853 187.141439,253.768942 186.1,253.355 C184.7,252.81 184.065,251.965 184.22,250.8 L184.22,229.345 C184.22,223.845 180.978333,221.093333 174.495,221.09 C166.945,221.09 163.171667,224.09 163.175,230.09 L163.175,250.82 C163.175,252.92 161.615,253.97 158.495,253.97 C157.337264,253.985693 156.187019,253.78211 155.105,253.37 C153.67,252.805 153.01,251.95 153.145,250.785 L153.145,228.625 C153.145,225.97 151.815,223.96 149.145,222.625 C147.070524,221.584845 144.775324,221.061649 142.455,221.1 C137.658333,221.1 134.56,222.381667 133.16,224.945 C132.37,226.361667 131.975,229.195 131.975,233.445 L131.975,250.945 C131.975,252.945 130.18,253.945 126.59,253.945 C123.516667,253.945 121.97,252.945 121.95,250.945 L121.835,232.19 C121.758333,220.323333 128.783333,214.39 142.91,214.39 C145.746406,214.366855 148.564094,214.851145 151.23,215.82 C154.396667,217.026667 156.73,218.808333 158.23,221.165 C159.29,219.228333 161.336667,217.621667 164.37,216.345 C167.582484,215.023705 171.026513,214.357338 174.5,214.385 C179.25,214.385 183.35,215.156667 186.8,216.7 C191.76,218.913333 194.24,222.445 194.24,227.295 L194.24,250.875 C194.24,252.925 192.616667,253.951667 189.37,253.955 L189.375,253.955 Z" id="Shape" fill="#AD2D5E"></path>
            <path d="M236.5,251.5 C232.412196,253.047638 228.070668,253.815885 223.7,253.765 C217.14,253.765 211.703333,252.528333 207.39,250.055 C201.58,246.721667 198.671667,241.406667 198.665,234.11 C198.665,226.98 201.595,221.701667 207.455,218.275 C211.835,215.731667 217.25,214.458333 223.7,214.455 C230.033333,214.455 235.4,215.695 239.8,218.175 C245.703333,221.475 248.658333,226.623333 248.665,233.62 C248.665,242.42 244.61,248.38 236.5,251.5 Z M235.165,225 C232.561667,222.23 228.74,220.846667 223.7,220.85 C218.54,220.85 214.675,222.255 212.07,225.07 C209.955,227.385 208.895,230.395 208.895,234.07 C208.895,237.745 209.955,240.795 212.07,243.11 C214.675,245.935 218.54,247.335 223.7,247.335 C227.783333,247.335 231.116667,246.376667 233.7,244.46 C236.86,242.15 238.44,238.618333 238.44,233.865 C238.44,230.295 237.341667,227.34 235.145,225 L235.165,225 Z" id="Shape" fill="#AD2D5E"></path>
            <path d="M253.865,235.375 L253.755,235.375 C253.755,229.305 255.421667,224.506667 258.755,220.98 C262.655,216.896667 268.345,214.853333 275.825,214.85 C279.694848,214.81874 283.527942,215.602395 287.075,217.15 C294.075,220.26 297.575,225.995 297.575,234.355 L297.575,251.27 C297.575,253.013333 295.888333,253.886667 292.515,253.89 C289.261667,253.89 287.635,253.016667 287.635,251.27 L287.635,234.42 C287.635,230.753333 287.068333,228.176667 285.935,226.69 C283.688333,223.783333 280.316667,222.331667 275.82,222.335 C271.323333,222.338333 267.933333,223.755 265.65,226.585 C264.406667,228.175 263.781667,230.675 263.775,234.085 L263.775,250.935 C263.775,252.68 262.085,253.56 258.69,253.56 C255.465,253.56 253.86,252.68 253.86,250.935 L253.865,235.375 Z" id="Shape" fill="#AD2D5E"></path>
            <path d="M304.085,235.375 L303.965,235.375 C303.965,229.305 305.631667,224.506667 308.965,220.98 C312.875,216.896667 318.566667,214.853333 326.04,214.85 C329.911458,214.818785 333.746174,215.602423 337.295,217.15 C344.295,220.26 347.795,225.995 347.795,234.355 L347.795,251.27 C347.795,253.013333 346.108333,253.886667 342.735,253.89 C339.475,253.89 337.845,253.016667 337.845,251.27 L337.845,234.42 C337.845,230.74 337.29,228.16 336.15,226.69 C333.906667,223.783333 330.535,222.331667 326.035,222.335 C321.535,222.338333 318.146667,223.755 315.87,226.585 C314.62,228.175 313.993333,230.675 313.99,234.085 L313.99,250.935 C313.99,252.68 312.295,253.56 308.905,253.56 C305.69,253.56 304.08,252.68 304.08,250.935 L304.085,235.375 Z" id="Shape" fill="#AD2D5E"></path>
            <path d="M358.62,209.39 C357.390414,209.403296 356.183937,209.055608 355.15,208.39 C353.899891,207.647666 353.133591,206.301402 353.133591,204.8475 C353.133591,203.393598 353.899891,202.047334 355.15,201.305 C356.185868,200.643655 357.391047,200.296341 358.62,200.305 C359.858364,200.296234 361.07319,200.643328 362.12,201.305 C363.393473,202.025819 364.163332,203.392319 364.12,204.855 C364.147421,206.282504 363.411876,207.616394 362.19,208.355 C361.125961,209.047394 359.879308,209.406068 358.61,209.385 L358.62,209.39 Z M358.5,253.575 C355.65,253.575 354.235,252.795 354.235,251.27 L354.235,217.335 C354.235,215.565 355.735,214.67 358.735,214.67 C361.85,214.67 363.42,215.565 363.42,217.335 L363.42,251.335 C363.21,252.831667 361.563333,253.578333 358.48,253.575 L358.5,253.575 Z" id="Shape" fill="#AD2D5E"></path>
            <path d="M415.85,234.205 C415.80819,234.5366 415.791475,234.870883 415.8,235.205 L378.08,236.8 C378.47671,240.390142 380.639518,243.545253 383.845,245.21 C386.418333,246.65 389.485,247.37 393.045,247.37 C399.335,247.37 403.528333,245.321667 405.625,241.225 C406.575,240.05 408.275,239.455 410.715,239.455 C414.135,239.455 415.85,240.3 415.85,242.005 C415.843815,242.26007 415.787761,242.511464 415.685,242.745 C414.075,246.875 410.751667,249.875 405.715,251.745 C402.048333,253.115 397.815,253.796667 393.015,253.79 C386.485,253.79 381.021667,252.575 376.625,250.145 C370.625,246.838333 367.625,241.608333 367.625,234.455 C367.625,228.575 369.69,223.841667 373.82,220.255 C378.253333,216.405 384.481667,214.48 392.505,214.48 C399.588333,214.48 405.383333,216.171667 409.89,219.555 C412.223333,221.245 413.778333,223.181667 414.555,225.365 C415.138333,226.905 415.601667,229.608333 415.945,233.475 C415.95901,233.726693 415.928543,233.978884 415.855,234.22 L415.85,234.205 Z M403.24,224.315 C400.533333,222.025 396.995,220.88 392.625,220.88 C389.707221,220.832299 386.818155,221.462143 384.185,222.72 C380.925,224.336667 379.011667,226.738333 378.445,229.925 L405.74,228.785 C405.45053,227.050071 404.566717,225.469813 403.24,224.315 Z" id="Shape" fill="#AD2D5E"></path>
            <path d="M454.88,221.695 C453.914305,222.289791 452.808753,222.619215 451.675,222.65 C451.138168,222.67049 450.609984,222.510274 450.175,222.195 C449.345,221.27 447.675,220.81 445.205,220.81 C441.475,220.81 438.425,221.785 436.025,223.75 C433.265,226.043333 431.885,229.365 431.885,233.715 C431.885,233.935 431.885,234.245 431.94,234.66 C431.995,235.075 432,235.375 432,235.59 L432,251.69 C431.766667,253.176667 430.005,253.918333 426.715,253.915 C423.645,253.915 422.105,253.155 422.105,251.615 L422.105,217.655 C422.105,216.005 423.928333,215.171667 427.575,215.155 C430.765,215.155 432.361667,216.003333 432.365,217.7 L432.365,218.66 C436.015,215.805 440.56,214.365 445.97,214.365 C450.723333,214.365 453.771667,214.778333 455.115,215.605 C456.41,216.4 457.045,217.335 457.045,218.445 C457.045,219.75 456.32,220.83 454.86,221.675 L454.88,221.695 Z" id="Shape" fill="#AD2D5E"></path>
            <path d="M383.76,187.31 C392.01,195.575 280.565,195.575 288.83,187.31 C280.565,195.575 280.565,84.13 288.83,92.38 C282.86,86.425 339.365,84.77 368.075,87.41 C366.14,112.935 329.075,122.705 315.21,148.97 C315.21,156.815 323.485,164.655 323.485,164.655 C326.485,167.505 330.6,168.285 335.015,167.74 C343.66,168.96 355.055,162.895 361.455,156.815 C361.455,148.97 353.19,141.125 353.19,133.285 C369.73,117.61 369.73,101.925 378,94.08 C380.444587,93.3105485 382.955378,92.7698915 385.5,92.465 C391.96,100.32 391.385,194.945 383.76,187.31 Z" id="Shape" fill="#AD2D5E"></path>
            <path d="M328.365,23.5 L328.365,47.045 C326.942731,47.0596288 325.528704,47.2630739 324.16,47.65 C317.29,49.49 310.435,54.875 303.55,54.875 C303.34,54.68 303.135,54.47 302.935,54.26 C295.29,46.26 295.29,31.165 295.29,23.515 C299.435,19.585 303.575,15.66 308.79,14.69 C314.005,13.72 320.115,15.685 328.365,23.5 Z" id="Shape" fill="#5CC4D8"></path>
            <path d="M469,125.455 C460.725,133.285 452.45,133.285 444.175,133.285 C444.175,133.26 444.175,133.245 444.175,133.225 C437.035,106.325 411.675,90.975 388.915,92.145 C387.755,92.205 386.62,92.305 385.485,92.465 C382.940378,92.7698915 380.429587,93.3105485 377.985,94.08 C369.715,101.925 369.715,117.61 353.175,133.285 C353.175,141.125 361.44,148.97 361.44,156.815 C355.04,162.895 343.645,168.96 335,167.74 C332.512884,167.44073 330.184681,166.360654 328.35,164.655 C328.35,164.655 320.075,156.815 320.075,148.97 C331.41,127.47 358.28,117.045 368.75,99.97 C368.75,99.97 368.775,99.97 368.775,99.93 C369.06,99.46 369.345,98.995 369.6,98.515 C371.417986,95.2468557 372.547838,91.641201 372.92,87.92 C373.42,82.84 372.5,77.14 369.715,70.545 C362.78,63.97 350.07,62.91 336.39,53.545 C333.539898,51.5976197 330.851212,49.4239305 328.35,47.045 C336.615,54.875 353.175,54.875 369.715,62.72 C373.102564,64.0710453 376.655818,64.9623015 380.28,65.37 C384.655,65.79 388.28,65.115 391.28,63.56 C398.58,59.86 402.44,51.18 405.425,41.03 C409.56,27.13 412,10.46 419.365,0 L435.9,0 C444.175,7.83 452.45,15.675 444.175,23.5 C435.9,31.325 427.64,23.5 419.365,31.345 C411.09,39.19 396,57.43 396,65.26 C396,96.62 427.635,101.925 460.72,101.925 C469,101.925 469,117.61 469,125.455 Z" id="Shape" fill="#5CC4D8"></path>
            <path d="M386.93,16.44 C386.93,25.06 379.57,32.05 370.47,32.05 C369.652064,32.0495289 368.835131,31.9927279 368.025,31.88 C360.085,30.755 354,24.27 354,16.44 C354,8.61 360.085,2.11 368.025,1 C368.835131,0.88727214 369.652064,0.83047109 370.47,0.83 C379.57,0.815 386.93,7.82 386.93,16.44 Z" id="Shape" fill="#5CC4D8"></path>
            <polygon id="Shape" fill="#AD2D5E" points="62.79 292.105 62.79 312.605 60 312.605 60 292.105 56.12 292.105 56.12 289.605 66.62 289.605 66.62 292.105"></polygon>
            <path d="M81.925,311.24 C80.9099527,312.351837 79.4540354,312.95618 77.95,312.89 C76.4542791,312.958422 75.0066168,312.352936 74.005,311.24 C72.42,309.495 72.325,306.875 72.325,301.125 C72.325,295.375 72.42,292.75 74,291 C75.0025544,289.888914 76.4500844,289.285317 77.945,289.355 C79.4483617,289.286852 80.9044352,289.889429 81.92,291 C83.5,292.745 83.565,295.365 83.565,301.12 C83.565,306.875 83.5,309.5 81.925,311.24 Z M79.82,292.74 C79.3564041,292.185101 78.6705726,291.864399 77.9475,291.864399 C77.2244274,291.864399 76.5385959,292.185101 76.075,292.74 C75.265,293.84 75.105,295.68 75.105,301.145 C75.105,306.61 75.265,308.45 76.075,309.545 C76.5385959,310.099899 77.2244274,310.420601 77.9475,310.420601 C78.6705726,310.420601 79.3564041,310.099899 79.82,309.545 C80.63,308.45 80.79,306.605 80.79,301.145 C80.79,295.685 80.63,293.82 79.82,292.72 L79.82,292.74 Z" id="Shape" fill="#AD2D5E"></path>
            <path d="M100,311.37 C98.9702368,312.363661 97.5856049,312.90383 96.155,312.87 C94.7330123,312.905343 93.3571224,312.364364 92.34,311.37 C91.3179899,310.295414 90.7765694,308.851626 90.84,307.37 L90.84,289.615 L93.62,289.615 L93.62,307.555 C93.62,309.365 94.755,310.4 96.12,310.4 C97.485,310.4 98.67,309.365 98.67,307.555 L98.67,289.615 L101.5,289.615 L101.5,307.395 C101.552605,308.867428 101.012238,310.299399 100,311.37 Z" id="Shape" fill="#AD2D5E"></path>
            <path d="M115.565,311.335 C113.23281,313.481733 109.619939,313.397765 107.39,311.145 L109.36,309.3 C109.864495,309.97565 110.651986,310.381384 111.495,310.4 C113.045,310.4 114.24,309.27 114.24,307.135 L114.24,289.635 L117,289.635 L117,307.135 C117,308.88 116.535,310.335 115.565,311.335 Z" id="Shape" fill="#AD2D5E"></path>
            <path d="M133.89,311.24 C132.876181,312.353585 131.419406,312.958285 129.915,312.89 C128.420998,312.956903 126.975487,312.35155 125.975,311.24 C124.39,309.495 124.29,306.875 124.29,301.125 C124.29,295.375 124.39,292.75 125.975,291.005 C126.976424,289.8953 128.421803,289.291836 129.915,289.36 C131.41873,289.289745 132.875664,289.892677 133.89,291.005 C135.475,292.75 135.54,295.37 135.54,301.125 C135.54,306.88 135.5,309.5 133.89,311.24 Z M131.79,292.74 C131.325448,292.184919 130.638825,291.864204 129.915,291.864204 C129.191175,291.864204 128.504552,292.184919 128.04,292.74 C127.235,293.84 127.07,295.68 127.07,301.145 C127.07,306.61 127.235,308.45 128.04,309.545 C128.504552,310.100081 129.191175,310.420796 129.915,310.420796 C130.638825,310.420796 131.325448,310.100081 131.79,309.545 C132.6,308.45 132.76,306.605 132.76,301.145 C132.76,295.685 132.6,293.82 131.79,292.72 L131.79,292.74 Z" id="Shape" fill="#AD2D5E"></path>
            <path d="M151.96,311.37 C150.928701,312.364429 149.542225,312.904615 148.11,312.87 C146.689631,312.904556 145.315586,312.363594 144.3,311.37 C143.27799,310.295414 142.736569,308.851626 142.8,307.37 L142.8,289.615 L145.58,289.615 L145.58,307.555 C145.58,309.365 146.71,310.4 148.08,310.4 C149.45,310.4 150.635,309.365 150.635,307.555 L150.635,289.615 L153.415,289.615 L153.415,307.395 C153.479714,308.861049 152.955871,310.292166 151.96,311.37 Z" id="Shape" fill="#AD2D5E"></path>
            <path d="M169.735,312.63 L166.565,302.74 L164.065,302.74 L164.065,312.63 L161.285,312.63 L161.285,289.63 L166.49,289.63 C169.99,289.63 171.92,291.13 171.92,296.195 C171.92,299.395 171.145,301.265 169.14,302.195 L172.665,312.635 L169.735,312.63 Z M166.5,292.13 L164.045,292.13 L164.045,300.31 L166.5,300.31 C168.635,300.31 169.12,298.66 169.12,296.205 C169.12,293.75 168.635,292.105 166.5,292.105 L166.5,292.13 Z" id="Shape" fill="#AD2D5E"></path>
            <path d="M188.545,311.465 C187.67,312.305 186.315,312.855 184.47,312.855 C182.625,312.855 181.335,312.355 180.43,311.465 C179.365,310.4 179.01,309.075 179.01,306.62 L181.79,306.62 C181.79,308.12 181.95,308.975 182.565,309.62 C183.683499,310.579484 185.339015,310.564531 186.44,309.585 C187.055,308.91 187.185,308.035 187.185,306.515 C187.185,303.865 186.8,303.06 184.925,302.28 L182.305,301.215 C179.945,300.245 179.17,298.955 179.17,295.46 C179.17,293.46 179.75,291.81 180.915,290.745 C181.917007,289.848737 183.226425,289.374051 184.57,289.42 C185.965309,289.340012 187.335414,289.816492 188.38,290.745 C189.545,291.875 189.88,293.36 189.88,295.46 L187.1,295.46 C187.1,294.235 186.97,293.395 186.39,292.68 C185.922113,292.140541 185.227224,291.85332 184.515,291.905 C183.847452,291.873531 183.199345,292.1346 182.74,292.62 C182.19,293.23 181.93,294.17 181.93,295.365 C181.93,297.625 182.285,298.305 184.125,299.08 L186.715,300.15 C189.33,301.215 189.945,302.83 189.945,306.45 C189.965,308.85 189.64,310.365 188.545,311.465 Z" id="Shape" fill="#AD2D5E"></path>
            <path d="M215.855,311.63 C214.886755,312.509468 213.605976,312.963416 212.3,312.89 C210.804279,312.958422 209.356617,312.352936 208.355,311.24 C206.77,309.495 206.675,306.875 206.675,301.125 C206.675,295.375 206.77,292.75 208.355,291.005 C210.417207,288.927746 213.735397,288.801047 215.95,290.715 C217.015,291.75 217.565,293.4 217.6,295.305 L214.82,295.305 C214.875011,294.368243 214.625983,293.438773 214.11,292.655 C213.674102,292.106963 212.999101,291.804891 212.3,291.845 C211.567583,291.802585 210.86295,292.131413 210.425,292.72 C209.615,293.82 209.455,295.66 209.455,301.125 C209.455,306.59 209.615,308.43 210.425,309.525 C210.877734,310.07249 211.548964,310.392335 212.259364,310.399082 C212.969764,310.405829 213.646949,310.098792 214.11,309.56 C214.636606,308.791119 214.896553,307.870766 214.85,306.94 L217.63,306.94 C217.6,308.88 217,310.595 215.855,311.63 Z" id="Shape" fill="#AD2D5E"></path>
            <path d="M233.24,312.63 L230.075,302.74 L227.575,302.74 L227.575,312.63 L224.795,312.63 L224.795,289.63 L230,289.63 C233.5,289.63 235.43,291.13 235.43,296.195 C235.43,299.395 234.655,301.265 232.65,302.195 L236.175,312.635 L233.24,312.63 Z M230.01,292.13 L227.55,292.13 L227.55,300.31 L230,300.31 C232.13,300.31 232.615,298.66 232.615,296.205 C232.615,293.75 232.14,292.105 230,292.105 L230.01,292.13 Z" id="Shape" fill="#AD2D5E"></path>
            <path d="M252.31,311.24 C251.296181,312.353585 249.839406,312.958285 248.335,312.89 C246.839279,312.958422 245.391617,312.352936 244.39,311.24 C242.81,309.495 242.71,306.875 242.71,301.125 C242.71,295.375 242.81,292.75 244.39,291.005 C245.392554,289.893914 246.840084,289.290317 248.335,289.36 C249.83873,289.289745 251.295664,289.892677 252.31,291.005 C253.895,292.75 253.96,295.37 253.96,301.125 C253.96,306.88 253.895,309.5 252.31,311.24 Z M250.21,292.74 C249.745448,292.184919 249.058825,291.864204 248.335,291.864204 C247.611175,291.864204 246.924552,292.184919 246.46,292.74 C245.655,293.84 245.49,295.68 245.49,301.145 C245.49,306.61 245.655,308.45 246.46,309.545 C246.924552,310.100081 247.611175,310.420796 248.335,310.420796 C249.058825,310.420796 249.745448,310.100081 250.21,309.545 C251.02,308.45 251.18,306.605 251.18,301.145 C251.18,295.685 251,293.82 250.21,292.72 L250.21,292.74 Z" id="Shape" fill="#AD2D5E"></path>
            <polygon id="Shape" fill="#AD2D5E" points="261.425 312.63 261.425 289.63 264.205 289.63 264.205 312.63"></polygon>
            <polygon id="Shape" fill="#AD2D5E" points="261.425 312.63 261.425 289.63 264.205 289.63 264.205 312.63"></polygon>
            <path d="M280.72,312.63 L277.55,302.74 L275.05,302.74 L275.05,312.63 L272.25,312.63 L272.25,289.63 L277.455,289.63 C280.955,289.63 282.885,291.13 282.885,296.195 C282.885,299.395 282.11,301.265 280.105,302.195 L283.605,312.635 L280.72,312.63 Z M277.485,292.13 L275.03,292.13 L275.03,300.31 L277.5,300.31 C279.635,300.31 280.12,298.66 280.12,296.205 C280.12,293.75 279.62,292.105 277.5,292.105 L277.485,292.13 Z" id="Shape" fill="#AD2D5E"></path>
            <polygon id="Shape" fill="#AD2D5E" points="290.835 312.63 290.835 289.63 299.725 289.63 299.725 292.13 293.615 292.13 293.615 299.855 298.88 299.855 298.88 302.355 293.615 302.355 293.615 310.175 299.725 310.175 299.725 312.675"></polygon>
            <polygon id="Shape" fill="#AD2D5E" points="316.915 312.63 316.915 289.63 325.805 289.63 325.805 292.13 319.695 292.13 319.695 299.855 324.965 299.855 324.965 302.355 319.695 302.355 319.695 310.175 325.805 310.175 325.805 312.675"></polygon>
            <polygon id="Shape" fill="#AD2D5E" points="341.8 312.63 335.855 296.89 335.855 312.63 333.075 312.63 333.075 289.63 335.66 289.63 341.575 305.37 341.545 289.63 344.325 289.63 344.325 312.63"></polygon>
            <path d="M371,311.465 C370.13,312.305 368.77,312.855 366.93,312.855 C365.09,312.855 363.795,312.355 362.89,311.465 C361.82,310.4 361.465,309.075 361.465,306.62 L364.245,306.62 C364.245,308.12 364.41,308.975 365.02,309.62 C366.140123,310.580209 367.797382,310.56526 368.9,309.585 C369.515,308.91 369.645,308.035 369.645,306.515 C369.645,303.865 369.255,303.06 367.38,302.28 L364.765,301.215 C362.405,300.245 361.63,298.955 361.63,295.46 C361.63,293.46 362.21,291.81 363.375,290.745 C364.374931,289.848593 365.682885,289.373788 367.025,289.42 C368.421698,289.340872 369.793036,289.817156 370.84,290.745 C372.005,291.875 372.34,293.36 372.34,295.46 L369.56,295.46 C369.56,294.235 369.43,293.395 368.85,292.68 C368.381171,292.141851 367.686967,291.854913 366.975,291.905 C366.306192,291.874735 365.657032,292.135493 365.195,292.62 C364.645,293.23 364.39,294.17 364.39,295.365 C364.39,297.625 364.745,298.305 366.585,299.08 L369.17,300.15 C371.79,301.215 372.405,302.83 372.405,306.45 C372.41,308.85 372.085,310.365 371,311.465 Z" id="Shape" fill="#AD2D5E"></path>
            <path d="M388.795,311.24 C387.774265,312.358733 386.307623,312.963723 384.795,312.89 C383.299279,312.958422 381.851617,312.352936 380.85,311.24 C379.265,309.495 379.17,306.875 379.17,301.125 C379.17,295.375 379.265,292.75 380.85,291.005 C381.852554,289.893914 383.300084,289.290317 384.795,289.36 C386.306945,289.284302 387.773747,289.887524 388.795,291.005 C390.38,292.75 390.445,295.37 390.445,301.125 C390.445,306.88 390.38,309.5 388.795,311.24 Z M386.695,292.74 C386.230448,292.184919 385.543825,291.864204 384.82,291.864204 C384.096175,291.864204 383.409552,292.184919 382.945,292.74 C382.135,293.84 381.975,295.68 381.975,301.145 C381.975,306.61 382.135,308.45 382.945,309.545 C383.409552,310.100081 384.096175,310.420796 384.82,310.420796 C385.543825,310.420796 386.230448,310.100081 386.695,309.545 C387.5,308.45 387.665,306.605 387.665,301.145 C387.665,295.685 387.5,293.82 386.695,292.72 L386.695,292.74 Z" id="Shape" fill="#AD2D5E"></path>
            <polygon id="Shape" fill="#AD2D5E" points="397.905 312.63 397.905 289.63 400.685 289.63 400.685 312.63"></polygon>
            <polygon id="Shape" fill="#AD2D5E" points="62.79 292.105 62.79 312.605 60 312.605 60 292.105 56.12 292.105 56.12 289.605 66.62 289.605 66.62 292.105"></polygon>
            <path d="M81.925,311.24 C80.9099527,312.351837 79.4540354,312.95618 77.95,312.89 C76.4542791,312.958422 75.0066168,312.352936 74.005,311.24 C72.42,309.495 72.325,306.875 72.325,301.125 C72.325,295.375 72.42,292.75 74,291 C75.0025544,289.888914 76.4500844,289.285317 77.945,289.355 C79.4483617,289.286852 80.9044352,289.889429 81.92,291 C83.5,292.745 83.565,295.365 83.565,301.12 C83.565,306.875 83.5,309.5 81.925,311.24 Z M79.82,292.74 C79.3564041,292.185101 78.6705726,291.864399 77.9475,291.864399 C77.2244274,291.864399 76.5385959,292.185101 76.075,292.74 C75.265,293.84 75.105,295.68 75.105,301.145 C75.105,306.61 75.265,308.45 76.075,309.545 C76.5385959,310.099899 77.2244274,310.420601 77.9475,310.420601 C78.6705726,310.420601 79.3564041,310.099899 79.82,309.545 C80.63,308.45 80.79,306.605 80.79,301.145 C80.79,295.685 80.63,293.82 79.82,292.72 L79.82,292.74 Z" id="Shape" fill="#AD2D5E"></path>
            <path d="M100,311.37 C98.9702368,312.363661 97.5856049,312.90383 96.155,312.87 C94.7330123,312.905343 93.3571224,312.364364 92.34,311.37 C91.3179899,310.295414 90.7765694,308.851626 90.84,307.37 L90.84,289.615 L93.62,289.615 L93.62,307.555 C93.62,309.365 94.755,310.4 96.12,310.4 C97.485,310.4 98.67,309.365 98.67,307.555 L98.67,289.615 L101.5,289.615 L101.5,307.395 C101.552605,308.867428 101.012238,310.299399 100,311.37 Z" id="Shape" fill="#AD2D5E"></path>
            <path d="M115.565,311.335 C113.23281,313.481733 109.619939,313.397765 107.39,311.145 L109.36,309.3 C109.864495,309.97565 110.651986,310.381384 111.495,310.4 C113.045,310.4 114.24,309.27 114.24,307.135 L114.24,289.635 L117,289.635 L117,307.135 C117,308.88 116.535,310.335 115.565,311.335 Z" id="Shape" fill="#AD2D5E"></path>
            <path d="M133.89,311.24 C132.876181,312.353585 131.419406,312.958285 129.915,312.89 C128.420998,312.956903 126.975487,312.35155 125.975,311.24 C124.39,309.495 124.29,306.875 124.29,301.125 C124.29,295.375 124.39,292.75 125.975,291.005 C126.976424,289.8953 128.421803,289.291836 129.915,289.36 C131.41873,289.289745 132.875664,289.892677 133.89,291.005 C135.475,292.75 135.54,295.37 135.54,301.125 C135.54,306.88 135.5,309.5 133.89,311.24 Z M131.79,292.74 C131.325448,292.184919 130.638825,291.864204 129.915,291.864204 C129.191175,291.864204 128.504552,292.184919 128.04,292.74 C127.235,293.84 127.07,295.68 127.07,301.145 C127.07,306.61 127.235,308.45 128.04,309.545 C128.504552,310.100081 129.191175,310.420796 129.915,310.420796 C130.638825,310.420796 131.325448,310.100081 131.79,309.545 C132.6,308.45 132.76,306.605 132.76,301.145 C132.76,295.685 132.6,293.82 131.79,292.72 L131.79,292.74 Z" id="Shape" fill="#AD2D5E"></path>
            <path d="M151.96,311.37 C150.928701,312.364429 149.542225,312.904615 148.11,312.87 C146.689631,312.904556 145.315586,312.363594 144.3,311.37 C143.27799,310.295414 142.736569,308.851626 142.8,307.37 L142.8,289.615 L145.58,289.615 L145.58,307.555 C145.58,309.365 146.71,310.4 148.08,310.4 C149.45,310.4 150.635,309.365 150.635,307.555 L150.635,289.615 L153.415,289.615 L153.415,307.395 C153.479714,308.861049 152.955871,310.292166 151.96,311.37 Z" id="Shape" fill="#AD2D5E"></path>
            <path d="M169.735,312.63 L166.565,302.74 L164.065,302.74 L164.065,312.63 L161.285,312.63 L161.285,289.63 L166.49,289.63 C169.99,289.63 171.92,291.13 171.92,296.195 C171.92,299.395 171.145,301.265 169.14,302.195 L172.665,312.635 L169.735,312.63 Z M166.5,292.13 L164.045,292.13 L164.045,300.31 L166.5,300.31 C168.635,300.31 169.12,298.66 169.12,296.205 C169.12,293.75 168.635,292.105 166.5,292.105 L166.5,292.13 Z" id="Shape" fill="#AD2D5E"></path>
            <path d="M188.545,311.465 C187.67,312.305 186.315,312.855 184.47,312.855 C182.625,312.855 181.335,312.355 180.43,311.465 C179.365,310.4 179.01,309.075 179.01,306.62 L181.79,306.62 C181.79,308.12 181.95,308.975 182.565,309.62 C183.683499,310.579484 185.339015,310.564531 186.44,309.585 C187.055,308.91 187.185,308.035 187.185,306.515 C187.185,303.865 186.8,303.06 184.925,302.28 L182.305,301.215 C179.945,300.245 179.17,298.955 179.17,295.46 C179.17,293.46 179.75,291.81 180.915,290.745 C181.917007,289.848737 183.226425,289.374051 184.57,289.42 C185.965309,289.340012 187.335414,289.816492 188.38,290.745 C189.545,291.875 189.88,293.36 189.88,295.46 L187.1,295.46 C187.1,294.235 186.97,293.395 186.39,292.68 C185.922113,292.140541 185.227224,291.85332 184.515,291.905 C183.847452,291.873531 183.199345,292.1346 182.74,292.62 C182.19,293.23 181.93,294.17 181.93,295.365 C181.93,297.625 182.285,298.305 184.125,299.08 L186.715,300.15 C189.33,301.215 189.945,302.83 189.945,306.45 C189.965,308.85 189.64,310.365 188.545,311.465 Z" id="Shape" fill="#AD2D5E"></path>
            <path d="M215.855,311.63 C214.886755,312.509468 213.605976,312.963416 212.3,312.89 C210.804279,312.958422 209.356617,312.352936 208.355,311.24 C206.77,309.495 206.675,306.875 206.675,301.125 C206.675,295.375 206.77,292.75 208.355,291.005 C210.417207,288.927746 213.735397,288.801047 215.95,290.715 C217.015,291.75 217.565,293.4 217.6,295.305 L214.82,295.305 C214.875011,294.368243 214.625983,293.438773 214.11,292.655 C213.674102,292.106963 212.999101,291.804891 212.3,291.845 C211.567583,291.802585 210.86295,292.131413 210.425,292.72 C209.615,293.82 209.455,295.66 209.455,301.125 C209.455,306.59 209.615,308.43 210.425,309.525 C210.877734,310.07249 211.548964,310.392335 212.259364,310.399082 C212.969764,310.405829 213.646949,310.098792 214.11,309.56 C214.636606,308.791119 214.896553,307.870766 214.85,306.94 L217.63,306.94 C217.6,308.88 217,310.595 215.855,311.63 Z" id="Shape" fill="#AD2D5E"></path>
            <path d="M233.24,312.63 L230.075,302.74 L227.575,302.74 L227.575,312.63 L224.795,312.63 L224.795,289.63 L230,289.63 C233.5,289.63 235.43,291.13 235.43,296.195 C235.43,299.395 234.655,301.265 232.65,302.195 L236.175,312.635 L233.24,312.63 Z M230.01,292.13 L227.55,292.13 L227.55,300.31 L230,300.31 C232.13,300.31 232.615,298.66 232.615,296.205 C232.615,293.75 232.14,292.105 230,292.105 L230.01,292.13 Z" id="Shape" fill="#AD2D5E"></path>
            <path d="M252.31,311.24 C251.296181,312.353585 249.839406,312.958285 248.335,312.89 C246.839279,312.958422 245.391617,312.352936 244.39,311.24 C242.81,309.495 242.71,306.875 242.71,301.125 C242.71,295.375 242.81,292.75 244.39,291.005 C245.392554,289.893914 246.840084,289.290317 248.335,289.36 C249.83873,289.289745 251.295664,289.892677 252.31,291.005 C253.895,292.75 253.96,295.37 253.96,301.125 C253.96,306.88 253.895,309.5 252.31,311.24 Z M250.21,292.74 C249.745448,292.184919 249.058825,291.864204 248.335,291.864204 C247.611175,291.864204 246.924552,292.184919 246.46,292.74 C245.655,293.84 245.49,295.68 245.49,301.145 C245.49,306.61 245.655,308.45 246.46,309.545 C246.924552,310.100081 247.611175,310.420796 248.335,310.420796 C249.058825,310.420796 249.745448,310.100081 250.21,309.545 C251.02,308.45 251.18,306.605 251.18,301.145 C251.18,295.685 251,293.82 250.21,292.72 L250.21,292.74 Z" id="Shape" fill="#AD2D5E"></path>
            <polygon id="Shape" fill="#AD2D5E" points="261.425 312.63 261.425 289.63 264.205 289.63 264.205 312.63"></polygon>
            <polygon id="Shape" fill="#AD2D5E" points="261.425 312.63 261.425 289.63 264.205 289.63 264.205 312.63"></polygon>
            <path d="M280.72,312.63 L277.55,302.74 L275.05,302.74 L275.05,312.63 L272.25,312.63 L272.25,289.63 L277.455,289.63 C280.955,289.63 282.885,291.13 282.885,296.195 C282.885,299.395 282.11,301.265 280.105,302.195 L283.605,312.635 L280.72,312.63 Z M277.485,292.13 L275.03,292.13 L275.03,300.31 L277.5,300.31 C279.635,300.31 280.12,298.66 280.12,296.205 C280.12,293.75 279.62,292.105 277.5,292.105 L277.485,292.13 Z" id="Shape" fill="#AD2D5E"></path>
            <polygon id="Shape" fill="#AD2D5E" points="290.835 312.63 290.835 289.63 299.725 289.63 299.725 292.13 293.615 292.13 293.615 299.855 298.88 299.855 298.88 302.355 293.615 302.355 293.615 310.175 299.725 310.175 299.725 312.675"></polygon>
            <polygon id="Shape" fill="#AD2D5E" points="316.915 312.63 316.915 289.63 325.805 289.63 325.805 292.13 319.695 292.13 319.695 299.855 324.965 299.855 324.965 302.355 319.695 302.355 319.695 310.175 325.805 310.175 325.805 312.675"></polygon>
            <polygon id="Shape" fill="#AD2D5E" points="341.8 312.63 335.855 296.89 335.855 312.63 333.075 312.63 333.075 289.63 335.66 289.63 341.575 305.37 341.545 289.63 344.325 289.63 344.325 312.63"></polygon>
            <path d="M371,311.465 C370.13,312.305 368.77,312.855 366.93,312.855 C365.09,312.855 363.795,312.355 362.89,311.465 C361.82,310.4 361.465,309.075 361.465,306.62 L364.245,306.62 C364.245,308.12 364.41,308.975 365.02,309.62 C366.140123,310.580209 367.797382,310.56526 368.9,309.585 C369.515,308.91 369.645,308.035 369.645,306.515 C369.645,303.865 369.255,303.06 367.38,302.28 L364.765,301.215 C362.405,300.245 361.63,298.955 361.63,295.46 C361.63,293.46 362.21,291.81 363.375,290.745 C364.374931,289.848593 365.682885,289.373788 367.025,289.42 C368.421698,289.340872 369.793036,289.817156 370.84,290.745 C372.005,291.875 372.34,293.36 372.34,295.46 L369.56,295.46 C369.56,294.235 369.43,293.395 368.85,292.68 C368.381171,292.141851 367.686967,291.854913 366.975,291.905 C366.306192,291.874735 365.657032,292.135493 365.195,292.62 C364.645,293.23 364.39,294.17 364.39,295.365 C364.39,297.625 364.745,298.305 366.585,299.08 L369.17,300.15 C371.79,301.215 372.405,302.83 372.405,306.45 C372.41,308.85 372.085,310.365 371,311.465 Z" id="Shape" fill="#AD2D5E"></path>
            <path d="M388.795,311.24 C387.774265,312.358733 386.307623,312.963723 384.795,312.89 C383.299279,312.958422 381.851617,312.352936 380.85,311.24 C379.265,309.495 379.17,306.875 379.17,301.125 C379.17,295.375 379.265,292.75 380.85,291.005 C381.852554,289.893914 383.300084,289.290317 384.795,289.36 C386.306945,289.284302 387.773747,289.887524 388.795,291.005 C390.38,292.75 390.445,295.37 390.445,301.125 C390.445,306.88 390.38,309.5 388.795,311.24 Z M386.695,292.74 C386.230448,292.184919 385.543825,291.864204 384.82,291.864204 C384.096175,291.864204 383.409552,292.184919 382.945,292.74 C382.135,293.84 381.975,295.68 381.975,301.145 C381.975,306.61 382.135,308.45 382.945,309.545 C383.409552,310.100081 384.096175,310.420796 384.82,310.420796 C385.543825,310.420796 386.230448,310.100081 386.695,309.545 C387.5,308.45 387.665,306.605 387.665,301.145 C387.665,295.685 387.5,293.82 386.695,292.72 L386.695,292.74 Z" id="Shape" fill="#AD2D5E"></path>
            <polygon id="Shape" fill="#AD2D5E" points="397.905 312.63 397.905 289.63 400.685 289.63 400.685 312.63"></polygon>
            <polygon id="Shape" fill="#5CC4D8" points="42.68 302.5 0.965 302.5 0.965 299.72 42.68 299.72"></polygon>
            <polygon id="Shape" fill="#5CC4D8" points="457.065 302.5 415.345 302.5 415.345 299.72 457.065 299.72"></polygon>
            <path d="M454.215,302.5 L454.215,275.54 C454.217743,274.773463 454.838463,274.152743 455.605,274.15 C456.372676,274.15 456.995,274.772324 456.995,275.54 L456.995,302.5 L454.215,302.5 Z" id="Shape" fill="#5CC4D8"></path>
            <path d="M0.56,302.5 L0.56,275.54 C0.562742556,274.773463 1.18346308,274.152743 1.95,274.15 C2.7176758,274.15 3.34,274.772324 3.34,275.54 L3.34,302.5 L0.56,302.5 Z" id="Shape" fill="#5CC4D8"></path>
        </g>
    </g>
</svg>